# xmcd
#
# Track frame offsets:
#	150
#	11096
#	26126
#	44338
#	57212
#	76713
#	91996
#	106695
#	120969
#	137630
#	153238
#	171216
#	187841
#	202338
#	219920
#	234444
#	249735
#
# Disc length: 3548 seconds
#
# Revision: 1
# Processed by: cddbd v1.5.2PL0 Copyright (c) Steve Scherf et al.
# Submitted via: EZCDAudioConverter 8.0.7.1
#
DISCID=d50dda11
DTITLE=Eddie Rabbitt - Number One Hits
DYEAR=2009
DGENRE=Country
TTITLE0=Drinkin' My Baby (Off My Mind)
TTITLE1=You Don't Love Me Anymore
TTITLE2=I Just Want To Love You
TTITLE3=Every Which Way But Loose
TTITLE4=Suspicious
TTITLE5=Gone To Far
TTITLE6=Drivin' My Life Away
TTITLE7=I Love A Rainy Might
TTITLE8=Step By Step
TTITLE9=Someone Could Lose A Heart Tonight
TTITLE10=You And I
TTITLE11=You Can't Run From Love
TTITLE12=The Best Year Of My Life
TTITLE13=Both To Reach Other (Friends and Lovers)
TTITLE14=I Wanna Dance With You
TTITLE15=The Wanderer
TTITLE16=On Second Thought
EXTD=
EXTT0=
EXTT1=
EXTT2=
EXTT3=
EXTT4=
EXTT5=
EXTT6=
EXTT7=
EXTT8=
EXTT9=
EXTT10=
EXTT11=
EXTT12=
EXTT13=
EXTT14=
EXTT15=
EXTT16=
PLAYORDER=
